<svg aria-hidden="true" style="position: absolute; width: 0; height: 0; overflow: hidden;" version="1.1" xmlns="http://www.w3.org/2000/svg" xmlns:xlink="http://www.w3.org/1999/xlink">
<defs>
<symbol id="icon-logo" viewBox="0 0 53 32">
<path fill="#b0907a" style="fill: var(--color2, #b0907a)" d="M36.8 13.333c0 5.596-4.537 10.133-10.133 10.133s-10.133-4.537-10.133-10.133c0-5.596 4.537-10.133 10.133-10.133s10.133 4.537 10.133 10.133z"></path>
<path fill="#403f3d" style="fill: var(--color3, #403f3d)" d="M51.028 11.889c0.111-0.010 0.2 0.034 0.268 0.131 0.077 0.096 0.123 0.233 0.139 0.412 0.027 0.306-0.022 0.576-0.148 0.81-0.206 0.386-0.496 0.699-0.869 0.937-0.365 0.238-0.815 0.38-1.35 0.427-0.816 0.071-1.471-0.115-1.964-0.561-0.494-0.454-0.777-1.097-0.85-1.93-0.051-0.587 0.024-1.141 0.227-1.665 0.202-0.532 0.507-0.965 0.914-1.301 0.416-0.336 0.9-0.528 1.453-0.577 0.493-0.043 0.901 0.071 1.225 0.343 0.323 0.263 0.506 0.645 0.55 1.147 0.051 0.587-0.117 1.111-0.505 1.573-0.38 0.453-1.065 0.847-2.055 1.182 0.238 0.373 0.6 0.539 1.084 0.496 0.349-0.030 0.626-0.136 0.833-0.317 0.215-0.182 0.455-0.477 0.719-0.885 0.091-0.136 0.2-0.21 0.328-0.221zM48.742 9.84c-0.315 0.028-0.566 0.234-0.755 0.619-0.181 0.384-0.248 0.835-0.203 1.354l0.002 0.025c0.491-0.163 0.871-0.376 1.139-0.639s0.389-0.552 0.361-0.867c-0.014-0.162-0.072-0.285-0.174-0.37-0.094-0.095-0.217-0.135-0.37-0.122z"></path>
<path fill="#403f3d" style="fill: var(--color3, #403f3d)" d="M44.425 15.010c-0.833 0.073-1.504-0.104-2.012-0.531-0.501-0.436-0.785-1.041-0.853-1.814-0.060-0.689 0.023-1.304 0.25-1.846s0.544-0.973 0.953-1.291c0.409-0.318 0.852-0.498 1.328-0.54 0.468-0.041 0.841 0.068 1.121 0.326 0.287 0.249 0.45 0.59 0.488 1.024 0.031 0.357-0.023 0.666-0.163 0.927-0.131 0.26-0.325 0.401-0.58 0.423-0.162 0.014-0.297-0.013-0.405-0.080-0.1-0.068-0.156-0.171-0.168-0.306-0.005-0.060-0.003-0.128 0.008-0.206s0.018-0.134 0.024-0.169c0.031-0.131 0.042-0.252 0.032-0.363s-0.047-0.193-0.112-0.247c-0.056-0.055-0.135-0.078-0.237-0.069-0.196 0.017-0.37 0.122-0.525 0.316-0.155 0.185-0.271 0.431-0.347 0.737s-0.098 0.638-0.067 0.995c0.086 0.986 0.559 1.442 1.417 1.366 0.349-0.030 0.713-0.178 1.092-0.442 0.387-0.274 0.756-0.661 1.106-1.163 0.092-0.128 0.201-0.197 0.329-0.209 0.111-0.010 0.2 0.034 0.268 0.131 0.077 0.096 0.123 0.233 0.139 0.412 0.028 0.323-0.029 0.594-0.173 0.812-0.356 0.528-0.803 0.953-1.341 1.274-0.529 0.312-1.053 0.491-1.572 0.536z"></path>
<path fill="#403f3d" style="fill: var(--color3, #403f3d)" d="M37.092 15.652c-0.323 0.028-0.567-0.122-0.733-0.45-0.157-0.329-0.269-0.867-0.334-1.615-0.097-1.105-0.031-2.169 0.196-3.191 0.055-0.253 0.163-0.443 0.323-0.568 0.168-0.135 0.409-0.216 0.724-0.243 0.17-0.015 0.291-0.004 0.363 0.033s0.113 0.114 0.123 0.233c0.012 0.136-0.025 0.448-0.111 0.935-0.055 0.347-0.097 0.651-0.126 0.91s-0.044 0.578-0.045 0.955c0.217-0.756 0.479-1.378 0.787-1.868s0.62-0.847 0.934-1.071c0.323-0.225 0.625-0.35 0.905-0.375 0.553-0.048 0.853 0.204 0.901 0.756 0.010 0.111-0.005 0.382-0.044 0.813-0.038 0.346-0.054 0.562-0.046 0.646 0.026 0.297 0.145 0.437 0.358 0.418 0.238-0.021 0.528-0.235 0.869-0.641 0.101-0.12 0.211-0.185 0.33-0.196 0.111-0.010 0.2 0.034 0.268 0.131 0.076 0.088 0.121 0.212 0.135 0.374 0.028 0.315-0.036 0.568-0.19 0.762-0.216 0.267-0.478 0.504-0.786 0.711-0.3 0.198-0.628 0.312-0.985 0.343-0.451 0.039-0.805-0.045-1.063-0.254-0.25-0.209-0.392-0.51-0.426-0.901-0.011-0.128-0.010-0.256 0.005-0.386 0.002-0.171 0.001-0.287-0.005-0.347-0.012-0.136-0.065-0.2-0.158-0.192-0.127 0.011-0.285 0.171-0.472 0.478-0.179 0.298-0.351 0.69-0.514 1.176s-0.286 0.993-0.368 1.523c-0.059 0.408-0.145 0.689-0.26 0.845-0.107 0.146-0.292 0.231-0.556 0.254z"></path>
<path fill="#403f3d" style="fill: var(--color3, #403f3d)" d="M31.597 16.133c-0.383 0.034-0.712-0.113-0.989-0.44-0.269-0.336-0.427-0.768-0.473-1.295-0.056-0.638-0.064-1.224-0.025-1.758 0.038-0.543 0.129-1.121 0.272-1.733 0.063-0.262 0.166-0.456 0.309-0.58s0.381-0.2 0.712-0.229c0.187-0.016 0.317 0.002 0.39 0.056 0.082 0.053 0.128 0.139 0.138 0.258 0.006 0.068-0.021 0.302-0.080 0.701-0.058 0.322-0.101 0.613-0.129 0.872-0.092 0.907-0.125 1.51-0.099 1.808 0.016 0.178 0.048 0.304 0.097 0.377 0.048 0.064 0.119 0.092 0.213 0.084 0.128-0.011 0.274-0.152 0.438-0.424 0.173-0.272 0.343-0.677 0.511-1.214 0.176-0.538 0.332-1.194 0.47-1.968 0.046-0.261 0.132-0.453 0.258-0.575 0.135-0.123 0.343-0.197 0.623-0.222 0.196-0.017 0.334-0.004 0.415 0.041 0.080 0.036 0.126 0.117 0.137 0.245 0.019 0.213-0.037 0.804-0.166 1.775-0.143 1.109-0.203 1.791-0.181 2.046 0.014 0.162 0.059 0.286 0.135 0.374 0.075 0.079 0.168 0.114 0.279 0.104 0.17-0.015 0.361-0.134 0.573-0.358 0.219-0.233 0.504-0.601 0.854-1.103 0.092-0.128 0.201-0.197 0.329-0.209 0.111-0.010 0.2 0.034 0.268 0.131 0.077 0.096 0.123 0.233 0.139 0.412 0.030 0.34-0.028 0.611-0.173 0.812-0.326 0.483-0.689 0.887-1.089 1.213-0.391 0.325-0.855 0.512-1.39 0.559-0.408 0.036-0.724-0.095-0.947-0.393-0.215-0.298-0.347-0.732-0.397-1.302-0.094 0.591-0.272 1.056-0.533 1.396-0.262 0.331-0.559 0.511-0.891 0.54z"></path>
<path fill="#403f3d" style="fill: var(--color3, #403f3d)" d="M30.699 12.202c0.11-0.010 0.2 0.038 0.27 0.143s0.111 0.243 0.126 0.413c0.036 0.408-0.066 0.661-0.306 0.759-0.494 0.223-1.047 0.374-1.656 0.453-0.099 0.728-0.368 1.33-0.806 1.805-0.439 0.467-0.96 0.726-1.564 0.779-0.51 0.045-0.959-0.040-1.346-0.255-0.379-0.215-0.679-0.519-0.902-0.91s-0.355-0.826-0.397-1.302c-0.057-0.646 0.017-1.231 0.219-1.754 0.202-0.532 0.507-0.957 0.916-1.275 0.408-0.327 0.876-0.514 1.403-0.56 0.646-0.057 1.184 0.123 1.615 0.54 0.438 0.407 0.72 0.935 0.845 1.584 0.397-0.060 0.866-0.187 1.406-0.38 0.067-0.023 0.125-0.037 0.176-0.041zM26.746 15.195c0.272-0.024 0.496-0.155 0.672-0.393 0.185-0.239 0.293-0.57 0.324-0.992-0.279-0.155-0.504-0.371-0.673-0.648-0.161-0.277-0.256-0.577-0.284-0.9-0.012-0.136-0.011-0.273 0.003-0.411l-0.064 0.006c-0.34 0.030-0.61 0.22-0.811 0.572-0.193 0.342-0.263 0.811-0.211 1.406 0.041 0.468 0.161 0.817 0.361 1.048 0.209 0.23 0.436 0.334 0.683 0.313z"></path>
<path fill="#403f3d" style="fill: var(--color3, #403f3d)" d="M21.498 17.299c-0.442 0.039-0.791-0.034-1.047-0.217-0.247-0.184-0.382-0.403-0.405-0.658-0.019-0.221 0.045-0.419 0.192-0.595s0.378-0.277 0.693-0.305c0.11-0.010 0.239-0.008 0.386 0.005 0.154 0.004 0.27 0.006 0.348 0.008-0.028-0.22-0.097-0.424-0.208-0.611-0.102-0.188-0.229-0.365-0.381-0.532-0.152-0.175-0.294-0.325-0.425-0.451-0.22 0.525-0.447 0.964-0.681 1.319-0.226 0.354-0.479 0.693-0.759 1.017-0.14 0.166-0.294 0.257-0.464 0.272-0.136 0.012-0.251-0.025-0.344-0.111-0.094-0.095-0.147-0.214-0.16-0.359-0.015-0.17 0.031-0.332 0.137-0.487l0.148-0.219c0.417-0.619 0.728-1.126 0.933-1.521 0.123-0.259 0.264-0.601 0.424-1.027 0.159-0.434 0.313-0.88 0.461-1.338 0.129-0.388 0.448-0.605 0.958-0.649 0.238-0.021 0.406-0.014 0.503 0.020s0.15 0.098 0.158 0.192c0.004 0.051-0.006 0.133-0.030 0.247s-0.061 0.228-0.111 0.344c-0.126 0.319-0.18 0.585-0.162 0.798 0.011 0.127 0.066 0.264 0.164 0.41 0.107 0.145 0.264 0.324 0.471 0.537 0.303 0.333 0.534 0.621 0.692 0.865 0.166 0.234 0.262 0.5 0.288 0.797 0.007 0.085 0.009 0.205 0.006 0.359 0.402-0.198 0.854-0.67 1.354-1.416 0.092-0.128 0.201-0.197 0.329-0.209 0.11-0.010 0.2 0.034 0.268 0.131 0.077 0.096 0.123 0.233 0.139 0.412 0.028 0.323-0.029 0.594-0.173 0.812-0.379 0.564-0.755 0.961-1.129 1.191-0.366 0.22-0.833 0.364-1.401 0.431-0.315 0.319-0.706 0.499-1.173 0.54z"></path>
<path fill="#403f3d" style="fill: var(--color3, #403f3d)" d="M19.529 14.259c0.11-0.010 0.2 0.034 0.268 0.131 0.077 0.096 0.123 0.233 0.139 0.412 0.030 0.34-0.028 0.611-0.173 0.812-0.281 0.41-0.696 0.802-1.246 1.175-0.541 0.373-1.139 0.588-1.794 0.645-0.893 0.078-1.607-0.104-2.142-0.545s-0.84-1.083-0.914-1.924c-0.051-0.587 0.024-1.141 0.227-1.665 0.202-0.532 0.507-0.965 0.914-1.301 0.416-0.336 0.9-0.528 1.453-0.577 0.493-0.043 0.901 0.071 1.225 0.343 0.323 0.263 0.506 0.645 0.55 1.147 0.051 0.587-0.117 1.111-0.505 1.573-0.38 0.453-1.061 0.847-2.042 1.181 0.247 0.372 0.668 0.533 1.263 0.481 0.383-0.034 0.805-0.203 1.266-0.509 0.469-0.315 0.863-0.705 1.183-1.17 0.092-0.128 0.201-0.197 0.329-0.209zM16.154 12.691c-0.315 0.028-0.566 0.234-0.755 0.619-0.181 0.384-0.248 0.835-0.203 1.354l0.002 0.025c0.491-0.163 0.871-0.376 1.139-0.639s0.389-0.552 0.361-0.867c-0.014-0.162-0.072-0.285-0.174-0.37-0.094-0.095-0.217-0.135-0.37-0.122z"></path>
<path fill="#403f3d" style="fill: var(--color3, #403f3d)" d="M14.768 14.676c0.111-0.010 0.2 0.034 0.268 0.131 0.077 0.096 0.123 0.233 0.139 0.412 0.029 0.332-0.029 0.602-0.173 0.812-0.365 0.529-0.744 0.947-1.136 1.256-0.393 0.3-0.875 0.475-1.445 0.525-0.553 0.048-1.037-0.059-1.454-0.322-0.409-0.264-0.819-0.742-1.23-1.434-0.331-0.554-0.589-0.959-0.775-1.217-0.186-0.266-0.365-0.452-0.537-0.557-0.163-0.106-0.361-0.161-0.593-0.167-0.018 0.181-0.067 0.751-0.146 1.709-0.031 0.431-0.051 0.694-0.059 0.789-0.040 0.526-0.175 0.94-0.405 1.243-0.231 0.294-0.606 0.464-1.125 0.51-0.57 0.050-1.090-0.072-1.561-0.365-0.463-0.302-0.84-0.74-1.13-1.314-0.291-0.583-0.47-1.257-0.537-2.022-0.125-1.428 0.014-2.682 0.416-3.763 0.411-1.081 1.039-1.933 1.884-2.555 0.853-0.631 1.866-0.998 3.039-1.101 0.816-0.071 1.511-0.008 2.085 0.19s1.012 0.503 1.313 0.913c0.31 0.41 0.489 0.887 0.536 1.431 0.042 0.476-0.032 0.954-0.222 1.433-0.182 0.47-0.482 0.899-0.902 1.287s-0.946 0.695-1.577 0.922c0.418 0.075 0.748 0.226 0.99 0.453s0.495 0.569 0.758 1.026c0.283 0.489 0.549 0.843 0.799 1.061 0.259 0.217 0.541 0.312 0.847 0.286 0.272-0.024 0.524-0.136 0.754-0.336 0.23-0.209 0.513-0.55 0.848-1.025 0.092-0.128 0.201-0.197 0.329-0.209zM6.071 14.254c-0.289 0.025-0.495-0.025-0.617-0.152-0.114-0.127-0.178-0.276-0.193-0.446-0.018-0.204 0.032-0.371 0.149-0.501 0.126-0.131 0.273-0.204 0.443-0.219l0.319-0.028c0.063-0.845 0.128-1.574 0.194-2.188 0.062-0.562 0.395-0.87 0.999-0.923 0.485-0.042 0.746 0.153 0.784 0.587 0.008 0.094 0.010 0.166 0.006 0.218l-0.197 2.15c0.457-0.066 0.864-0.213 1.221-0.441 0.365-0.229 0.643-0.527 0.834-0.895 0.199-0.369 0.279-0.774 0.241-1.216-0.047-0.536-0.266-0.94-0.659-1.214s-0.941-0.38-1.647-0.319c-0.833 0.073-1.546 0.345-2.139 0.817-0.585 0.462-1.016 1.117-1.293 1.963-0.278 0.838-0.366 1.839-0.264 3.004 0.048 0.544 0.144 1.007 0.288 1.388s0.306 0.663 0.485 0.844c0.179 0.181 0.34 0.266 0.485 0.253 0.111-0.010 0.195-0.073 0.253-0.189 0.067-0.117 0.111-0.301 0.132-0.551l0.177-1.943z"></path>
<path fill="#403f3d" style="fill: var(--color3, #403f3d)" d="M41.815 28.8v-3.103h2.018v0.471h-1.456v0.842h1.352v0.471h-1.352v0.847h1.468v0.471h-2.030z"></path>
<path fill="#403f3d" style="fill: var(--color3, #403f3d)" d="M40.517 26.55c-0.014-0.132-0.074-0.235-0.179-0.309-0.104-0.074-0.239-0.111-0.406-0.111-0.117 0-0.218 0.018-0.301 0.053s-0.148 0.083-0.192 0.144c-0.044 0.061-0.067 0.13-0.068 0.208 0 0.065 0.015 0.121 0.044 0.168 0.030 0.047 0.071 0.088 0.123 0.121 0.052 0.032 0.109 0.060 0.171 0.082s0.126 0.041 0.189 0.056l0.291 0.073c0.117 0.027 0.23 0.064 0.338 0.111s0.207 0.105 0.292 0.176c0.087 0.071 0.156 0.156 0.206 0.256s0.076 0.217 0.076 0.352c0 0.182-0.047 0.342-0.139 0.48-0.093 0.137-0.227 0.245-0.403 0.323-0.175 0.077-0.386 0.115-0.635 0.115-0.241 0-0.451-0.037-0.629-0.112-0.177-0.075-0.315-0.184-0.415-0.327-0.099-0.143-0.153-0.318-0.161-0.524h0.553c0.008 0.108 0.041 0.198 0.1 0.27s0.135 0.125 0.229 0.161c0.095 0.035 0.201 0.053 0.318 0.053 0.122 0 0.229-0.018 0.321-0.055 0.093-0.037 0.166-0.089 0.218-0.154 0.053-0.067 0.079-0.144 0.080-0.233-0.001-0.081-0.025-0.147-0.071-0.2-0.047-0.054-0.112-0.098-0.195-0.133-0.083-0.036-0.18-0.069-0.291-0.097l-0.353-0.091c-0.256-0.066-0.458-0.165-0.606-0.299-0.147-0.134-0.221-0.313-0.221-0.535 0-0.183 0.050-0.343 0.148-0.48 0.1-0.137 0.236-0.244 0.408-0.32 0.172-0.077 0.366-0.115 0.583-0.115 0.22 0 0.413 0.038 0.579 0.115 0.167 0.076 0.297 0.181 0.392 0.317 0.095 0.134 0.144 0.289 0.147 0.464h-0.541z"></path>
<path fill="#403f3d" style="fill: var(--color3, #403f3d)" d="M37.445 25.697h0.562v2.027c0 0.222-0.053 0.418-0.158 0.586s-0.251 0.3-0.439 0.395c-0.189 0.094-0.41 0.141-0.662 0.141s-0.475-0.047-0.664-0.141c-0.189-0.095-0.335-0.227-0.439-0.395s-0.156-0.364-0.156-0.586v-2.027h0.562v1.98c0 0.129 0.028 0.244 0.085 0.345s0.138 0.18 0.242 0.238c0.104 0.057 0.227 0.085 0.37 0.085s0.266-0.028 0.37-0.085c0.105-0.058 0.186-0.137 0.242-0.238s0.085-0.216 0.085-0.345v-1.98z"></path>
<path fill="#403f3d" style="fill: var(--color3, #403f3d)" d="M34.744 27.248c0 0.334-0.063 0.621-0.188 0.859s-0.294 0.419-0.509 0.546c-0.214 0.126-0.457 0.189-0.729 0.189s-0.515-0.063-0.73-0.189c-0.214-0.127-0.384-0.31-0.509-0.547-0.124-0.238-0.186-0.524-0.186-0.858 0-0.334 0.062-0.62 0.186-0.858 0.125-0.238 0.295-0.421 0.509-0.547 0.215-0.126 0.459-0.189 0.73-0.189s0.515 0.063 0.729 0.189c0.215 0.126 0.385 0.309 0.509 0.547 0.125 0.237 0.188 0.523 0.188 0.858zM34.179 27.248c0-0.235-0.037-0.434-0.111-0.595-0.073-0.163-0.174-0.285-0.303-0.368s-0.278-0.126-0.447-0.126c-0.169 0-0.318 0.042-0.447 0.126-0.129 0.083-0.231 0.206-0.305 0.368-0.073 0.162-0.109 0.36-0.109 0.595s0.036 0.434 0.109 0.597c0.074 0.162 0.175 0.284 0.305 0.368 0.129 0.083 0.278 0.124 0.447 0.124s0.318-0.041 0.447-0.124c0.129-0.084 0.23-0.207 0.303-0.368s0.111-0.362 0.111-0.597z"></path>
<path fill="#403f3d" style="fill: var(--color3, #403f3d)" d="M28.582 28.8v-3.103h0.562v1.314h1.438v-1.314h0.564v3.103h-0.564v-1.318h-1.438v1.318h-0.562z"></path>
<path fill="#403f3d" style="fill: var(--color3, #403f3d)" d="M24.506 28.8v-3.103h2.018v0.471h-1.456v0.842h1.352v0.471h-1.352v0.847h1.468v0.471h-2.030z"></path>
<path fill="#403f3d" style="fill: var(--color3, #403f3d)" d="M21.701 28.8v-3.103h2.018v0.471h-1.456v0.842h1.352v0.471h-1.352v0.847h1.468v0.471h-2.030z"></path>
<path fill="#403f3d" style="fill: var(--color3, #403f3d)" d="M18.988 28.8v-3.103h1.988v0.471h-1.426v0.842h1.289v0.471h-1.289v1.318h-0.562z"></path>
<path fill="#403f3d" style="fill: var(--color3, #403f3d)" d="M16.274 28.8v-3.103h1.988v0.471h-1.426v0.842h1.289v0.471h-1.289v1.318h-0.562z"></path>
<path fill="#403f3d" style="fill: var(--color3, #403f3d)" d="M15.53 27.248c0 0.334-0.063 0.621-0.188 0.859s-0.294 0.419-0.509 0.546c-0.214 0.126-0.457 0.189-0.729 0.189s-0.515-0.063-0.73-0.189c-0.214-0.127-0.384-0.31-0.509-0.547-0.124-0.238-0.186-0.524-0.186-0.858 0-0.334 0.062-0.62 0.186-0.858 0.125-0.238 0.295-0.421 0.509-0.547s0.459-0.189 0.73-0.189c0.272 0 0.515 0.063 0.729 0.189s0.385 0.309 0.509 0.547c0.125 0.237 0.188 0.523 0.188 0.858zM14.964 27.248c0-0.235-0.037-0.434-0.111-0.595-0.073-0.163-0.174-0.285-0.303-0.368s-0.278-0.126-0.447-0.126-0.318 0.042-0.447 0.126c-0.129 0.083-0.231 0.206-0.305 0.368-0.073 0.162-0.109 0.36-0.109 0.595s0.036 0.434 0.109 0.597c0.074 0.162 0.175 0.284 0.305 0.368 0.129 0.083 0.278 0.124 0.447 0.124s0.318-0.041 0.447-0.124c0.129-0.084 0.23-0.207 0.303-0.368 0.074-0.163 0.111-0.362 0.111-0.597z"></path>
<path fill="#403f3d" style="fill: var(--color3, #403f3d)" d="M12.029 26.744h-0.567c-0.016-0.093-0.046-0.175-0.089-0.247s-0.098-0.134-0.162-0.185c-0.065-0.050-0.138-0.088-0.221-0.114-0.082-0.026-0.17-0.039-0.265-0.039-0.169 0-0.318 0.042-0.448 0.127s-0.232 0.207-0.306 0.37c-0.074 0.162-0.111 0.359-0.111 0.592 0 0.237 0.037 0.437 0.111 0.6 0.075 0.162 0.177 0.284 0.306 0.367s0.279 0.123 0.447 0.123c0.093 0 0.18-0.012 0.261-0.036 0.082-0.025 0.155-0.062 0.22-0.111 0.066-0.048 0.121-0.108 0.165-0.179s0.077-0.151 0.094-0.242l0.567 0.003c-0.021 0.147-0.067 0.286-0.138 0.415s-0.161 0.243-0.274 0.342c-0.113 0.098-0.245 0.175-0.397 0.23-0.152 0.055-0.32 0.082-0.505 0.082-0.273 0-0.516-0.063-0.73-0.189s-0.383-0.309-0.506-0.547c-0.123-0.238-0.185-0.524-0.185-0.858 0-0.334 0.062-0.62 0.186-0.858 0.124-0.238 0.293-0.421 0.508-0.547s0.457-0.189 0.727-0.189c0.173 0 0.333 0.024 0.482 0.073s0.281 0.12 0.397 0.214c0.116 0.093 0.212 0.207 0.286 0.342 0.076 0.134 0.125 0.288 0.148 0.461z"></path>
</symbol>
</defs>
</svg>